<?xml version="1.0" standalone="no"?><!DOCTYPE svg PUBLIC "-//W3C//DTD SVG 1.1//EN" "http://www.w3.org/Graphics/SVG/1.1/DTD/svg11.dtd"><svg xmlns="http://www.w3.org/2000/svg" viewBox="0 0 650 500" version="1.1"><clipPath id="box"><rect x="0" y="0" width="650" height="500" style="fill:none;stroke:none;" /></clipPath><g clip-path="url(#box)"><rect x="0.00" y="0.00" width="650.00" height="500.00" style="fill:#FFFFFF;stroke:none;" /><path d="M0.00 492.00 L650.00 492.00 M0.00 442.00 L650.00 442.00 M0.00 392.00 L650.00 392.00 M0.00 342.00 L650.00 342.00 M0.00 292.00 L650.00 292.00 M0.00 242.00 L650.00 242.00 M0.00 192.00 L650.00 192.00 M0.00 142.00 L650.00 142.00 M0.00 92.00 L650.00 92.00 M0.00 42.00 L650.00 42.00 M74.00 0.00 L74.00 500.00 M154.00 0.00 L154.00 500.00 M234.00 0.00 L234.00 500.00 M314.00 0.00 L314.00 500.00 M394.00 0.00 L394.00 500.00 M474.00 0.00 L474.00 500.00 M554.00 0.00 L554.00 500.00 M634.00 0.00 L634.00 500.00 " style="fill:none;stroke:#D0D0D0;stroke-width:1;" /><path d="M0.00 0.00 L0.00 500.00 " style="fill:none;stroke:#000000;stroke-width:1;" /><path d="M-6.50 542.57 L6.50 542.57 M-6.50 492.57 L6.50 492.57 M-6.50 442.57 L6.50 442.57 M-6.50 392.57 L6.50 392.57 M-6.50 342.57 L6.50 342.57 M-6.50 292.57 L6.50 292.57 M-6.50 242.57 L6.50 242.57 M-6.50 192.57 L6.50 192.57 M-6.50 142.57 L6.50 142.57 M-6.50 92.57 L6.50 92.57 M-6.50 42.57 L6.50 42.57 " style="fill:none;stroke:#000000;stroke-width:1;" /><path d="M0.00 242.57 L650.00 242.57 " style="fill:none;stroke:#000000;stroke-width:1;" /><path d="M-5.97 236.07 L-5.97 249.07 M74.03 236.07 L74.03 249.07 M154.03 236.07 L154.03 249.07 M234.03 236.07 L234.03 249.07 M314.03 236.07 L314.03 249.07 M394.03 236.07 L394.03 249.07 M474.03 236.07 L474.03 249.07 M554.03 236.07 L554.03 249.07 M634.03 236.07 L634.03 249.07 " style="fill:none;stroke:#000000;stroke-width:1;" /><text x="8.125" y="445.07400000000047" text-anchor="start" style="font:10px Droid Sans,Trebuchet MS,Arial,Helvetica,sans-serif;stroke:none;fill:#000000">-2</text><text x="8.125" y="395.07400000000035" text-anchor="start" style="font:10px Droid Sans,Trebuchet MS,Arial,Helvetica,sans-serif;stroke:none;fill:#000000">-1.5</text><text x="8.125" y="345.07400000000024" text-anchor="start" style="font:10px Droid Sans,Trebuchet MS,Arial,Helvetica,sans-serif;stroke:none;fill:#000000">-1</text><text x="8.125" y="295.0740000000002" text-anchor="start" style="font:10px Droid Sans,Trebuchet MS,Arial,Helvetica,sans-serif;stroke:none;fill:#000000">-0.5</text><text x="8.125" y="245.07400000000004" text-anchor="start" style="font:10px Droid Sans,Trebuchet MS,Arial,Helvetica,sans-serif;stroke:none;fill:#000000">0</text><text x="8.125" y="195.07399999999996" text-anchor="start" style="font:10px Droid Sans,Trebuchet MS,Arial,Helvetica,sans-serif;stroke:none;fill:#000000">0.5</text><text x="8.125" y="145.07399999999987" text-anchor="start" style="font:10px Droid Sans,Trebuchet MS,Arial,Helvetica,sans-serif;stroke:none;fill:#000000">1</text><text x="8.125" y="95.07399999999976" text-anchor="start" style="font:10px Droid Sans,Trebuchet MS,Arial,Helvetica,sans-serif;stroke:none;fill:#000000">1.5</text><text x="8.125" y="45.073999999999664" text-anchor="start" style="font:10px Droid Sans,Trebuchet MS,Arial,Helvetica,sans-serif;stroke:none;fill:#000000">2</text><text x="74.02679999999977" y="258.69900000000007" text-anchor="middle" style="font:10px Droid Sans,Trebuchet MS,Arial,Helvetica,sans-serif;stroke:none;fill:#000000">1</text><text x="154.02679999999987" y="258.69900000000007" text-anchor="middle" style="font:10px Droid Sans,Trebuchet MS,Arial,Helvetica,sans-serif;stroke:none;fill:#000000">2</text><text x="234.02679999999992" y="258.69900000000007" text-anchor="middle" style="font:10px Droid Sans,Trebuchet MS,Arial,Helvetica,sans-serif;stroke:none;fill:#000000">3</text><text x="314.02680000000004" y="258.69900000000007" text-anchor="middle" style="font:10px Droid Sans,Trebuchet MS,Arial,Helvetica,sans-serif;stroke:none;fill:#000000">4</text><text x="394.0268000000001" y="258.69900000000007" text-anchor="middle" style="font:10px Droid Sans,Trebuchet MS,Arial,Helvetica,sans-serif;stroke:none;fill:#000000">5</text><text x="474.02680000000015" y="258.69900000000007" text-anchor="middle" style="font:10px Droid Sans,Trebuchet MS,Arial,Helvetica,sans-serif;stroke:none;fill:#000000">6</text><text x="554.0268000000003" y="258.69900000000007" text-anchor="middle" style="font:10px Droid Sans,Trebuchet MS,Arial,Helvetica,sans-serif;stroke:none;fill:#000000">7</text><text x="634.0268000000004" y="258.69900000000007" text-anchor="middle" style="font:10px Droid Sans,Trebuchet MS,Arial,Helvetica,sans-serif;stroke:none;fill:#000000">8</text><path d="M-10.00 250.00 L-0.25 241.80 L0.75 241.78 L2.75 241.74 L4.75 241.70 L6.75 241.66 L8.75 241.61 L10.75 241.56 L12.75 241.51 L14.75 241.46 L16.75 241.40 L18.75 241.34 L20.75 241.28 L22.75 241.21 L24.75 241.14 L26.75 241.07 L28.75 240.99 L30.75 240.91 L32.75 240.83 L34.75 240.74 L36.75 240.65 L38.75 240.55 L40.75 240.45 L42.75 240.35 L44.75 240.24 L46.75 240.12 L48.75 240.00 L50.75 239.87 L52.75 239.73 L54.75 239.59 L56.75 239.44 L58.75 239.29 L60.75 239.12 L62.75 238.95 L64.75 238.78 L66.75 238.59 L68.75 238.39 L70.75 238.19 L72.75 237.97 L74.75 237.75 L76.75 237.51 L78.75 237.27 L80.75 237.01 L82.75 236.74 L84.75 236.46 L86.75 236.17 L88.75 235.86 L90.75 235.54 L92.75 235.21 L94.75 234.86 L96.75 234.50 L98.75 234.12 L100.75 233.72 L102.75 233.31 L104.75 232.88 L106.75 232.44 L108.75 231.97 L110.75 231.49 L112.75 230.98 L114.75 230.46 L116.75 229.92 L118.75 229.36 L120.75 228.77 L122.75 228.17 L124.75 227.54 L126.75 226.89 L128.75 226.22 L130.75 225.52 L132.75 224.80 L134.75 224.06 L136.75 223.29 L138.75 222.50 L140.75 221.69 L142.75 220.85 L144.75 219.99 L146.75 219.10 L148.75 218.19 L150.75 217.26 L152.75 216.30 L154.75 215.32 L156.75 214.32 L158.75 213.30 L160.70 212.28 L162.61 211.26 L164.49 210.24 L166.33 209.22 L168.14 208.21 L169.93 207.19 L171.69 206.18 L173.43 205.17 L175.15 204.16 L176.85 203.15 L178.53 202.14 L180.20 201.13 L181.85 200.12 L183.50 199.12 L185.13 198.11 L186.75 197.11 L188.37 196.10 L189.98 195.10 L191.58 194.10 L193.19 193.10 L194.79 192.10 L196.39 191.10 L197.99 190.10 L199.59 189.10 L201.20 188.10 L202.81 187.11 L204.42 186.11 L206.05 185.12 L207.68 184.12 L209.32 183.13 L210.97 182.14 L212.64 181.15 L214.32 180.16 L216.02 179.17 L217.73 178.18 L219.46 177.19 L221.22 176.20 L223.00 175.22 L224.80 174.23 L226.64 173.25 L228.50 172.27 L230.40 171.29 L232.34 170.31 L234.31 169.33 L236.31 168.36 L238.31 167.42 L240.31 166.49 L242.31 165.60 L244.31 164.72 L246.31 163.87 L248.31 163.05 L250.31 162.24 L252.31 161.47 L254.31 160.71 L256.31 159.98 L258.31 159.27 L260.31 158.59 L262.31 157.93 L264.31 157.29 L266.31 156.67 L268.31 156.08 L270.31 155.50 L272.31 154.95 L274.31 154.42 L276.31 153.91 L278.31 153.41 L280.31 152.94 L282.31 152.49 L284.31 152.05 L286.31 151.63 L288.31 151.22 L290.31 150.84 L292.31 150.47 L294.31 150.11 L296.31 149.77 L298.31 149.44 L300.31 149.13 L302.31 148.83 L304.31 148.54 L306.31 148.27 L308.31 148.01 L310.31 147.75 L312.31 147.51 L314.31 147.28 L316.31 147.07 L318.31 146.86 L320.31 146.66 L322.31 146.46 L324.31 146.28 L326.31 146.11 L328.31 145.94 L330.31 145.78 L332.31 145.63 L334.31 145.49 L336.31 145.35 L338.31 145.22 L340.31 145.09 L342.31 144.97 L344.31 144.86 L346.31 144.75 L348.31 144.64 L350.31 144.54 L352.31 144.45 L354.31 144.36 L356.31 144.27 L358.31 144.19 L360.31 144.12 L362.31 144.04 L364.31 143.97 L366.31 143.90 L368.31 143.84 L370.31 143.78 L372.31 143.72 L374.31 143.66 L376.31 143.61 L378.31 143.56 L380.31 143.51 L382.31 143.47 L384.31 143.43 L386.31 143.38 L388.31 143.35 L390.31 143.31 L392.31 143.27 L394.31 143.24 L396.31 143.21 L398.31 143.18 L400.31 143.15 L402.31 143.12 L404.31 143.09 L406.31 143.07 L408.31 143.04 L410.31 143.02 L412.31 143.00 L414.31 142.98 L416.31 142.96 L418.31 142.94 L420.31 142.92 L422.31 142.91 L424.31 142.89 L426.31 142.87 L428.31 142.86 L430.31 142.85 L432.31 142.83 L434.31 142.82 L436.31 142.81 L438.31 142.80 L440.31 142.79 L442.31 142.78 L444.31 142.77 L446.31 142.76 L448.31 142.75 L450.31 142.74 L452.31 142.73 L454.31 142.72 L456.31 142.72 L458.31 142.71 L460.31 142.70 L462.31 142.70 L464.31 142.69 L466.31 142.68 L468.31 142.68 L470.31 142.67 L472.31 142.67 L474.31 142.66 L476.31 142.66 L478.31 142.66 L480.31 142.65 L482.31 142.65 L484.31 142.64 L486.31 142.64 L488.31 142.64 L490.31 142.63 L492.31 142.63 L494.31 142.63 L496.31 142.63 L498.31 142.62 L500.31 142.62 L502.31 142.62 L504.31 142.62 L506.31 142.61 L508.31 142.61 L510.31 142.61 L512.31 142.61 L514.31 142.61 L516.31 142.61 L518.31 142.60 L520.31 142.60 L522.31 142.60 L524.31 142.60 L526.31 142.60 L528.31 142.60 L530.31 142.60 L532.31 142.60 L534.31 142.59 L536.31 142.59 L538.31 142.59 L540.31 142.59 L542.31 142.59 L544.31 142.59 L546.31 142.59 L548.31 142.59 L550.31 142.59 L552.31 142.59 L554.31 142.59 L556.31 142.59 L558.31 142.59 L560.31 142.58 L562.31 142.58 L564.31 142.58 L566.31 142.58 L568.31 142.58 L570.31 142.58 L572.31 142.58 L574.31 142.58 L576.31 142.58 L578.31 142.58 L580.31 142.58 L582.31 142.58 L584.31 142.58 L586.31 142.58 L588.31 142.58 L590.31 142.58 L592.31 142.58 L594.31 142.58 L596.31 142.58 L598.31 142.58 L600.31 142.58 L602.31 142.58 L604.31 142.58 L606.31 142.58 L608.31 142.58 L610.31 142.58 L612.31 142.58 L614.31 142.58 L616.31 142.58 L618.31 142.58 L620.31 142.58 L622.31 142.58 L624.31 142.58 L626.31 142.58 L628.31 142.58 L630.31 142.58 L632.31 142.58 L634.31 142.58 L636.31 142.58 L638.31 142.58 L640.31 142.58 L642.31 142.58 L644.31 142.58 L646.31 142.58 L648.31 142.58 " style="fill:none;stroke:#CF3636;stroke-width:1;" /><path d="M-10.00 250.00 L-0.25 142.57 L0.75 142.57 L2.75 142.57 L4.75 142.57 L6.75 142.57 L8.75 142.57 L10.75 142.57 L12.75 142.57 L14.75 142.57 L16.75 142.57 L18.75 142.57 L20.75 142.57 L22.75 142.57 L24.75 142.57 L26.75 142.57 L28.75 142.57 L30.75 142.57 L32.75 142.57 L34.75 142.57 L36.75 142.57 L38.75 142.57 L40.75 142.57 L42.75 142.57 L44.75 142.57 L46.75 142.57 L48.75 142.57 L50.75 142.57 L52.75 142.57 L54.75 142.58 L56.75 142.58 L58.75 142.58 L60.75 142.58 L62.75 142.58 L64.75 142.58 L66.75 142.58 L68.75 142.58 L70.75 142.58 L72.75 142.58 L74.75 142.58 L76.75 142.58 L78.75 142.58 L80.75 142.58 L82.75 142.58 L84.75 142.58 L86.75 142.58 L88.75 142.58 L90.75 142.58 L92.75 142.58 L94.75 142.58 L96.75 142.58 L98.75 142.58 L100.75 142.58 L102.75 142.58 L104.75 142.58 L106.75 142.58 L108.75 142.58 L110.75 142.58 L112.75 142.58 L114.75 142.58 L116.75 142.58 L118.75 142.58 L120.75 142.58 L122.75 142.58 L124.75 142.58 L126.75 142.58 L128.75 142.58 L130.75 142.58 L132.75 142.58 L134.75 142.58 L136.75 142.58 L138.75 142.58 L140.75 142.58 L142.75 142.58 L144.75 142.58 L146.75 142.58 L148.75 142.58 L150.75 142.59 L152.75 142.59 L154.75 142.59 L156.75 142.59 L158.75 142.59 L160.75 142.59 L162.75 142.59 L164.75 142.59 L166.75 142.59 L168.75 142.59 L170.75 142.59 L172.75 142.59 L174.75 142.59 L176.75 142.60 L178.75 142.60 L180.75 142.60 L182.75 142.60 L184.75 142.60 L186.75 142.60 L188.75 142.60 L190.75 142.60 L192.75 142.61 L194.75 142.61 L196.75 142.61 L198.75 142.61 L200.75 142.61 L202.75 142.62 L204.75 142.62 L206.75 142.62 L208.75 142.62 L210.75 142.62 L212.75 142.63 L214.75 142.63 L216.75 142.63 L218.75 142.64 L220.75 142.64 L222.75 142.64 L224.75 142.65 L226.75 142.65 L228.75 142.65 L230.75 142.66 L232.75 142.66 L234.75 142.67 L236.75 142.67 L238.75 142.68 L240.75 142.68 L242.75 142.69 L244.75 142.69 L246.75 142.70 L248.75 142.71 L250.75 142.71 L252.75 142.72 L254.75 142.73 L256.75 142.73 L258.75 142.74 L260.75 142.75 L262.75 142.76 L264.75 142.77 L266.75 142.78 L268.75 142.79 L270.75 142.80 L272.75 142.81 L274.75 142.83 L276.75 142.84 L278.75 142.85 L280.75 142.87 L282.75 142.88 L284.75 142.90 L286.75 142.91 L288.75 142.93 L290.75 142.95 L292.75 142.97 L294.75 142.99 L296.75 143.01 L298.75 143.03 L300.75 143.06 L302.75 143.08 L304.75 143.11 L306.75 143.13 L308.75 143.16 L310.75 143.19 L312.75 143.22 L314.75 143.26 L316.75 143.29 L318.75 143.33 L320.75 143.36 L322.75 143.41 L324.75 143.45 L326.75 143.49 L328.75 143.54 L330.75 143.59 L332.75 143.64 L334.75 143.69 L336.75 143.75 L338.75 143.81 L340.75 143.87 L342.75 143.94 L344.75 144.01 L346.75 144.08 L348.75 144.15 L350.75 144.23 L352.75 144.32 L354.75 144.40 L356.75 144.50 L358.75 144.59 L360.75 144.69 L362.75 144.80 L364.75 144.91 L366.75 145.03 L368.75 145.15 L370.75 145.28 L372.75 145.42 L374.75 145.56 L376.75 145.71 L378.75 145.86 L380.75 146.02 L382.75 146.19 L384.75 146.37 L386.75 146.56 L388.75 146.75 L390.75 146.96 L392.75 147.17 L394.75 147.40 L396.75 147.63 L398.75 147.88 L400.75 148.14 L402.75 148.40 L404.75 148.69 L406.75 148.98 L408.75 149.29 L410.75 149.61 L412.75 149.94 L414.75 150.29 L416.75 150.65 L418.75 151.03 L420.75 151.43 L422.75 151.84 L424.75 152.27 L426.75 152.71 L428.75 153.18 L430.75 153.66 L432.75 154.16 L434.75 154.69 L436.75 155.23 L438.75 155.79 L440.75 156.38 L442.75 156.98 L444.75 157.61 L446.75 158.26 L448.75 158.93 L450.75 159.63 L452.75 160.35 L454.75 161.09 L456.75 161.85 L458.75 162.64 L460.75 163.46 L462.75 164.30 L464.75 165.16 L466.75 166.04 L468.75 166.95 L470.75 167.89 L472.75 168.85 L474.75 169.83 L476.75 170.83 L478.75 171.85 L480.70 172.87 L482.61 173.89 L484.49 174.91 L486.33 175.92 L488.14 176.94 L489.93 177.95 L491.69 178.97 L493.43 179.98 L495.15 180.99 L496.85 182.00 L498.53 183.01 L500.20 184.02 L501.85 185.02 L503.50 186.03 L505.13 187.04 L506.75 188.04 L508.37 189.04 L509.98 190.05 L511.58 191.05 L513.19 192.05 L514.79 193.05 L516.39 194.05 L517.99 195.05 L519.59 196.05 L521.20 197.04 L522.81 198.04 L524.42 199.04 L526.05 200.03 L527.68 201.02 L529.32 202.02 L530.97 203.01 L532.64 204.00 L534.32 204.99 L536.02 205.98 L537.73 206.97 L539.46 207.96 L541.22 208.94 L543.00 209.93 L544.80 210.91 L546.64 211.90 L548.50 212.88 L550.40 213.86 L552.34 214.84 L554.31 215.82 L556.31 216.79 L558.31 217.73 L560.31 218.65 L562.31 219.55 L564.31 220.43 L566.31 221.28 L568.31 222.10 L570.31 222.90 L572.31 223.68 L574.31 224.44 L576.31 225.17 L578.31 225.87 L580.31 226.56 L582.31 227.22 L584.31 227.86 L586.31 228.48 L588.31 229.07 L590.31 229.64 L592.31 230.20 L594.31 230.73 L596.31 231.24 L598.31 231.73 L600.31 232.21 L602.31 232.66 L604.31 233.10 L606.31 233.52 L608.31 233.92 L610.31 234.31 L612.31 234.68 L614.31 235.04 L616.31 235.38 L618.31 235.71 L620.31 236.02 L622.31 236.32 L624.31 236.61 L626.31 236.88 L628.31 237.14 L630.31 237.39 L632.31 237.63 L634.31 237.86 L636.31 238.08 L638.31 238.29 L640.31 238.49 L642.31 238.68 L644.31 238.87 L646.31 239.04 L648.31 239.21 " style="fill:none;stroke:#1C31D6;stroke-width:1;" /></g></svg>